<svg xmlns="http://www.w3.org/2000/svg" xmlns:xlink="http://www.w3.org/1999/xlink" width="32" height="32" viewBox="0 0 512 512"><defs><linearGradient id="b"><stop offset="0" style="stop-color:#163913;stop-opacity:1"/><stop offset="1" style="stop-color:#357425;stop-opacity:0"/></linearGradient><linearGradient id="a"><stop offset="0" style="stop-color:#5ac341;stop-opacity:1"/><stop offset="1" style="stop-color:#238c1e;stop-opacity:1"/></linearGradient><linearGradient xlink:href="#a" id="d" x1="256" x2="256" y1="0" y2="512" gradientUnits="userSpaceOnUse"/><linearGradient xlink:href="#b" id="e" x1="226.193" x2="511.904" y1="192.518" y2="478.229" gradientUnits="userSpaceOnUse"/><clipPath id="c" clipPathUnits="userSpaceOnUse"><path d="M-492.255-400.207h307.2c56.554 0 102.4 45.846 102.4 102.4v307.2c0 56.554-45.846 102.4-102.4 102.4h-307.2c-56.554 0-102.4-45.846-102.4-102.4v-307.2c0-56.554 45.846-102.4 102.4-102.4" style="display:inline;stroke-width:1.80698" transform="translate(594.655 400.207)"/></clipPath></defs><g clip-path="url(#c)" style="display:inline"><path d="M0 0h512v512H0z" style="display:inline;fill:url(#d);fill-opacity:1;stroke-width:1.80698"/><path d="m178.316 94.482 139.678 125.05v-80.957L368.57 88.73l19.463 9.232L512 200v312H240L132.144 367.321Z" style="display:inline;fill:url(#e);fill-opacity:1"/><path d="m249.705 345.808 14.68.086-.002 78.06-14.677-.088zM360.382 88.09a41.708 39.184 0 0 1 41.707 39.183v167.63c0 35.667-11.804 68.936-35.412 90.816-22.582 20.642-59.484 36.861-102.295 38.236v-78.057c17.828-1.475 28.553-8.134 38.648-17.619 11.486-10.79 14.834-17.342 14.834-43.718V127.273a41.708 39.184 0 0 1 41.707-39.183ZM153.707 88A41.708 39.184 0 0 0 112 127.184v167.628c0 35.668 11.804 68.937 35.412 90.817 22.582 20.642 59.484 36.861 102.295 38.236V345.81c-17.828-1.476-28.553-8.135-38.648-17.62-11.486-10.79-14.834-17.342-14.834-43.718V127.184A41.708 39.184 0 0 0 154.518 88Z" style="display:inline;fill:#f8fef6;fill-opacity:1"/></g></svg>